<?xml version="1.0" encoding="utf-8"?><!-- Uploaded to: SVG Repo, www.svgrepo.com, Generator: SVG Repo Mixer Tools -->
<svg fill="#000000" width="800px" height="800px" viewBox="0 0 24 24" id="sticky-notes-5" data-name="Flat Color" xmlns="http://www.w3.org/2000/svg" class="icon flat-color"><path id="primary" d="M22,7v9a2,2,0,0,1-2,2H8a2,2,0,0,1-2-2V7A2,2,0,0,1,8,5H20A2,2,0,0,1,22,7ZM19,20H7a3,3,0,0,1-3-3V10a1,1,0,0,0-2,0v7a5,5,0,0,0,5,5H19a1,1,0,0,0,0-2Z" style="fill: rgb(0, 0, 0);"></path><path id="secondary" d="M10.71,8.29l-2-2A3.09,3.09,0,0,0,9,5,3,3,0,1,0,6,8a3.09,3.09,0,0,0,1.29-.29l2,2a1,1,0,0,0,1.42,0A1,1,0,0,0,10.71,8.29Z" style="fill: rgb(44, 169, 188);"></path></svg>